<?xml version="1.0" encoding="utf-8"?>
<!-- Generator: Adobe Illustrator 22.1.0, SVG Export Plug-In . SVG Version: 6.00 Build 0)  -->
<svg version="1.1" id="Слой_1" xmlns="http://www.w3.org/2000/svg" xmlns:xlink="http://www.w3.org/1999/xlink" x="0px" y="0px"
	 viewBox="0 0 55 46" style="enable-background:new 0 0 55 46;" xml:space="preserve">
<path d="M6.9,14.6h34.4v-3.4H6.9V14.6z M25.8,35.3h12v-3.4h-12V35.3z M25.8,28.4h15.5v-3.4H25.8V28.4z M25.8,21.5h15.5v-3.4H25.8
	V21.5z M6.9,35.3h15.5V18.1H6.9V35.3z M48.1,7.7V0.9H0v37.8c0,0,0,6.9,6.9,6.9h43c0,0,5.2-0.1,5.2-6.9V7.7H48.1z M6.9,42.1
	c-3.4,0-3.4-3.4-3.4-3.4V4.3h41.3v34.4c0,1.6,0.5,2.7,1.2,3.4H6.9z"/>
</svg>
